<svg xmlns="http://www.w3.org/2000/svg" viewBox="0 0 900 520" fill="none"><g stroke="#11140F" stroke-width="3"><rect x="340" y="20" width="220" height="70" rx="10"/><rect x="70" y="190" width="200" height="70" rx="10"/><rect x="350" y="190" width="200" height="70" rx="10"/><rect x="630" y="190" width="200" height="70" rx="10"/><rect x="350" y="370" width="200" height="70" rx="10"/></g><g font-family="Inter,Arial" font-size="26" fill="#11140F" text-anchor="middle"><text x="450" y="65">Your Answer</text><text x="170" y="235">Clarify</text><text x="450" y="235">Go Deeper</text><text x="730" y="235">Challenge</text><text x="450" y="415">Trade-offs</text></g><g stroke="#123B25" stroke-width="3"><path d="M450 90v90"/><path d="M450 90 170 190"/><path d="M450 90 730 190"/><path d="M170 260c0 65 280 40 280 110"/><path d="M730 260c0 65-280 40-280 110"/></g><path d="M365 378h170v54H365z" fill="#F5D63D" opacity=".8"/></svg>
